<mxfile host="app.diagrams.net" modified="2023-01-24T14:00:52.215Z" agent="5.0 (Windows NT 10.0; Win64; x64) AppleWebKit/537.36 (KHTML, like Gecko) Chrome/109.0.0.0 Safari/537.36" etag="1i2Bi5sPF_DjCh83emJE" version="20.8.10" type="github">
  <diagram name="Page-1" id="aXfRvPTBmu4ckXdB264b">
    <mxGraphModel dx="1257" dy="691" grid="1" gridSize="10" guides="1" tooltips="1" connect="1" arrows="1" fold="1" page="1" pageScale="1" pageWidth="850" pageHeight="1100" math="0" shadow="0">
      <root>
        <mxCell id="0" />
        <mxCell id="1" parent="0" />
        <mxCell id="qguIRylfdAJT4cAhSkLN-1" value="start" style="ellipse;whiteSpace=wrap;html=1;" vertex="1" parent="1">
          <mxGeometry x="340" width="120" height="80" as="geometry" />
        </mxCell>
        <mxCell id="qguIRylfdAJT4cAhSkLN-2" value="read 2, 4, 6" style="shape=parallelogram;perimeter=parallelogramPerimeter;whiteSpace=wrap;html=1;fixedSize=1;" vertex="1" parent="1">
          <mxGeometry x="265" y="110" width="250" height="40" as="geometry" />
        </mxCell>
        <mxCell id="qguIRylfdAJT4cAhSkLN-12" style="edgeStyle=orthogonalEdgeStyle;rounded=0;orthogonalLoop=1;jettySize=auto;html=1;exitX=0;exitY=0.5;exitDx=0;exitDy=0;entryX=0.5;entryY=0;entryDx=0;entryDy=0;" edge="1" parent="1" source="qguIRylfdAJT4cAhSkLN-3" target="qguIRylfdAJT4cAhSkLN-5">
          <mxGeometry relative="1" as="geometry" />
        </mxCell>
        <mxCell id="qguIRylfdAJT4cAhSkLN-34" value="FALSE" style="edgeLabel;html=1;align=center;verticalAlign=middle;resizable=0;points=[];" vertex="1" connectable="0" parent="qguIRylfdAJT4cAhSkLN-12">
          <mxGeometry x="-0.3943" y="-1" relative="1" as="geometry">
            <mxPoint as="offset" />
          </mxGeometry>
        </mxCell>
        <mxCell id="qguIRylfdAJT4cAhSkLN-14" style="edgeStyle=orthogonalEdgeStyle;rounded=0;orthogonalLoop=1;jettySize=auto;html=1;exitX=1;exitY=0.5;exitDx=0;exitDy=0;entryX=0.5;entryY=0;entryDx=0;entryDy=0;fontStyle=1;labelBackgroundColor=#2929FF;" edge="1" parent="1" source="qguIRylfdAJT4cAhSkLN-3" target="qguIRylfdAJT4cAhSkLN-4">
          <mxGeometry relative="1" as="geometry">
            <Array as="points">
              <mxPoint x="600" y="245" />
            </Array>
          </mxGeometry>
        </mxCell>
        <mxCell id="qguIRylfdAJT4cAhSkLN-33" value="TRUE" style="edgeLabel;html=1;align=center;verticalAlign=middle;resizable=0;points=[];" vertex="1" connectable="0" parent="qguIRylfdAJT4cAhSkLN-14">
          <mxGeometry x="-0.0353" relative="1" as="geometry">
            <mxPoint as="offset" />
          </mxGeometry>
        </mxCell>
        <mxCell id="qguIRylfdAJT4cAhSkLN-3" value="is&lt;br&gt;2&amp;gt;4" style="rhombus;whiteSpace=wrap;html=1;" vertex="1" parent="1">
          <mxGeometry x="310" y="190" width="160" height="110" as="geometry" />
        </mxCell>
        <mxCell id="qguIRylfdAJT4cAhSkLN-26" style="edgeStyle=orthogonalEdgeStyle;rounded=0;orthogonalLoop=1;jettySize=auto;html=1;exitX=0;exitY=0.5;exitDx=0;exitDy=0;" edge="1" parent="1" source="qguIRylfdAJT4cAhSkLN-4">
          <mxGeometry relative="1" as="geometry">
            <mxPoint x="390" y="344.7142857142858" as="targetPoint" />
          </mxGeometry>
        </mxCell>
        <mxCell id="qguIRylfdAJT4cAhSkLN-56" value="FALSE" style="edgeLabel;html=1;align=center;verticalAlign=middle;resizable=0;points=[];" vertex="1" connectable="0" parent="qguIRylfdAJT4cAhSkLN-26">
          <mxGeometry x="-0.2688" relative="1" as="geometry">
            <mxPoint x="-19" as="offset" />
          </mxGeometry>
        </mxCell>
        <mxCell id="qguIRylfdAJT4cAhSkLN-39" style="edgeStyle=orthogonalEdgeStyle;rounded=0;orthogonalLoop=1;jettySize=auto;html=1;exitX=1;exitY=0.5;exitDx=0;exitDy=0;labelBackgroundColor=#2929FF;" edge="1" parent="1" source="qguIRylfdAJT4cAhSkLN-4">
          <mxGeometry relative="1" as="geometry">
            <mxPoint x="760" y="480" as="targetPoint" />
          </mxGeometry>
        </mxCell>
        <mxCell id="qguIRylfdAJT4cAhSkLN-55" value="TRUE" style="edgeLabel;html=1;align=center;verticalAlign=middle;resizable=0;points=[];" vertex="1" connectable="0" parent="qguIRylfdAJT4cAhSkLN-39">
          <mxGeometry x="-0.7448" relative="1" as="geometry">
            <mxPoint as="offset" />
          </mxGeometry>
        </mxCell>
        <mxCell id="qguIRylfdAJT4cAhSkLN-4" value="is&lt;br&gt;2 &amp;gt; 6" style="rhombus;whiteSpace=wrap;html=1;" vertex="1" parent="1">
          <mxGeometry x="530" y="285" width="140" height="120" as="geometry" />
        </mxCell>
        <mxCell id="qguIRylfdAJT4cAhSkLN-23" style="edgeStyle=orthogonalEdgeStyle;rounded=0;orthogonalLoop=1;jettySize=auto;html=1;exitX=1;exitY=0.5;exitDx=0;exitDy=0;" edge="1" parent="1" source="qguIRylfdAJT4cAhSkLN-5">
          <mxGeometry relative="1" as="geometry">
            <mxPoint x="390" y="345" as="targetPoint" />
          </mxGeometry>
        </mxCell>
        <mxCell id="qguIRylfdAJT4cAhSkLN-37" value="FALSE" style="edgeLabel;html=1;align=center;verticalAlign=middle;resizable=0;points=[];" vertex="1" connectable="0" parent="qguIRylfdAJT4cAhSkLN-23">
          <mxGeometry x="-0.175" relative="1" as="geometry">
            <mxPoint as="offset" />
          </mxGeometry>
        </mxCell>
        <mxCell id="qguIRylfdAJT4cAhSkLN-53" style="edgeStyle=orthogonalEdgeStyle;rounded=0;orthogonalLoop=1;jettySize=auto;html=1;exitX=0;exitY=0.5;exitDx=0;exitDy=0;entryX=0.131;entryY=-0.014;entryDx=0;entryDy=0;entryPerimeter=0;labelBackgroundColor=#2929FF;" edge="1" parent="1" source="qguIRylfdAJT4cAhSkLN-5" target="qguIRylfdAJT4cAhSkLN-6">
          <mxGeometry relative="1" as="geometry" />
        </mxCell>
        <mxCell id="qguIRylfdAJT4cAhSkLN-54" value="TRUE" style="edgeLabel;html=1;align=center;verticalAlign=middle;resizable=0;points=[];" vertex="1" connectable="0" parent="qguIRylfdAJT4cAhSkLN-53">
          <mxGeometry x="-0.4834" y="-2" relative="1" as="geometry">
            <mxPoint as="offset" />
          </mxGeometry>
        </mxCell>
        <mxCell id="qguIRylfdAJT4cAhSkLN-5" value="is&lt;br&gt;4 &amp;gt; 6" style="rhombus;whiteSpace=wrap;html=1;" vertex="1" parent="1">
          <mxGeometry x="110" y="280" width="120" height="130" as="geometry" />
        </mxCell>
        <mxCell id="qguIRylfdAJT4cAhSkLN-47" style="edgeStyle=orthogonalEdgeStyle;rounded=0;orthogonalLoop=1;jettySize=auto;html=1;labelBackgroundColor=#2929FF;" edge="1" parent="1" source="qguIRylfdAJT4cAhSkLN-6">
          <mxGeometry relative="1" as="geometry">
            <mxPoint x="110" y="680" as="targetPoint" />
          </mxGeometry>
        </mxCell>
        <mxCell id="qguIRylfdAJT4cAhSkLN-6" value="print &lt;br&gt;&quot; 4 the largest number&quot;" style="shape=parallelogram;perimeter=parallelogramPerimeter;whiteSpace=wrap;html=1;fixedSize=1;" vertex="1" parent="1">
          <mxGeometry y="480" width="220" height="70" as="geometry" />
        </mxCell>
        <mxCell id="qguIRylfdAJT4cAhSkLN-51" style="edgeStyle=orthogonalEdgeStyle;rounded=0;orthogonalLoop=1;jettySize=auto;html=1;exitX=0.5;exitY=1;exitDx=0;exitDy=0;labelBackgroundColor=#2929FF;" edge="1" parent="1" source="qguIRylfdAJT4cAhSkLN-7">
          <mxGeometry relative="1" as="geometry">
            <mxPoint x="390.14285714285734" y="620" as="targetPoint" />
          </mxGeometry>
        </mxCell>
        <mxCell id="qguIRylfdAJT4cAhSkLN-7" value="print&lt;br&gt;&quot;6 the&amp;nbsp; largest number&quot;" style="shape=parallelogram;perimeter=parallelogramPerimeter;whiteSpace=wrap;html=1;fixedSize=1;" vertex="1" parent="1">
          <mxGeometry x="270" y="480" width="240" height="70" as="geometry" />
        </mxCell>
        <mxCell id="qguIRylfdAJT4cAhSkLN-48" style="edgeStyle=orthogonalEdgeStyle;rounded=0;orthogonalLoop=1;jettySize=auto;html=1;exitX=0.5;exitY=1;exitDx=0;exitDy=0;labelBackgroundColor=#2929FF;" edge="1" parent="1" source="qguIRylfdAJT4cAhSkLN-8">
          <mxGeometry relative="1" as="geometry">
            <mxPoint x="720.1428571428573" y="680" as="targetPoint" />
          </mxGeometry>
        </mxCell>
        <mxCell id="qguIRylfdAJT4cAhSkLN-8" value="print&amp;nbsp;&lt;br&gt;&quot;2 the largest number&quot;" style="shape=parallelogram;perimeter=parallelogramPerimeter;whiteSpace=wrap;html=1;fixedSize=1;" vertex="1" parent="1">
          <mxGeometry x="630" y="480" width="180" height="70" as="geometry" />
        </mxCell>
        <mxCell id="qguIRylfdAJT4cAhSkLN-25" style="edgeStyle=orthogonalEdgeStyle;rounded=0;orthogonalLoop=1;jettySize=auto;html=1;exitX=0.5;exitY=1;exitDx=0;exitDy=0;" edge="1" parent="1" source="qguIRylfdAJT4cAhSkLN-4" target="qguIRylfdAJT4cAhSkLN-4">
          <mxGeometry relative="1" as="geometry" />
        </mxCell>
        <mxCell id="qguIRylfdAJT4cAhSkLN-27" value="" style="endArrow=classic;html=1;rounded=0;" edge="1" parent="1">
          <mxGeometry width="50" height="50" relative="1" as="geometry">
            <mxPoint x="390" y="340" as="sourcePoint" />
            <mxPoint x="390" y="480" as="targetPoint" />
          </mxGeometry>
        </mxCell>
        <mxCell id="qguIRylfdAJT4cAhSkLN-31" value="" style="endArrow=classic;html=1;rounded=0;" edge="1" parent="1" target="qguIRylfdAJT4cAhSkLN-3">
          <mxGeometry width="50" height="50" relative="1" as="geometry">
            <mxPoint x="390" y="160" as="sourcePoint" />
            <mxPoint x="450" y="230" as="targetPoint" />
          </mxGeometry>
        </mxCell>
        <mxCell id="qguIRylfdAJT4cAhSkLN-32" value="" style="endArrow=classic;html=1;rounded=0;exitX=0.5;exitY=1;exitDx=0;exitDy=0;" edge="1" parent="1" source="qguIRylfdAJT4cAhSkLN-1">
          <mxGeometry width="50" height="50" relative="1" as="geometry">
            <mxPoint x="400" y="70" as="sourcePoint" />
            <mxPoint x="400" y="100" as="targetPoint" />
          </mxGeometry>
        </mxCell>
        <mxCell id="qguIRylfdAJT4cAhSkLN-43" value="END" style="ellipse;whiteSpace=wrap;html=1;" vertex="1" parent="1">
          <mxGeometry x="330" y="630" width="120" height="80" as="geometry" />
        </mxCell>
        <mxCell id="qguIRylfdAJT4cAhSkLN-49" value="" style="endArrow=classic;html=1;rounded=0;labelBackgroundColor=#2929FF;" edge="1" parent="1">
          <mxGeometry width="50" height="50" relative="1" as="geometry">
            <mxPoint x="710" y="680" as="sourcePoint" />
            <mxPoint x="460" y="680" as="targetPoint" />
          </mxGeometry>
        </mxCell>
        <mxCell id="qguIRylfdAJT4cAhSkLN-50" value="" style="endArrow=classic;html=1;rounded=0;labelBackgroundColor=#2929FF;" edge="1" parent="1">
          <mxGeometry width="50" height="50" relative="1" as="geometry">
            <mxPoint x="120" y="680" as="sourcePoint" />
            <mxPoint x="310" y="680" as="targetPoint" />
          </mxGeometry>
        </mxCell>
      </root>
    </mxGraphModel>
  </diagram>
</mxfile>
